<?xml version="1.0" encoding="UTF-8" standalone="no"?>
<!-- Created with Inkscape (http://www.inkscape.org/) -->

<svg
   width="500"
   height="500"
   viewBox="0 0 132.29166 132.29166"
   version="1.1"
   id="svg1"
   xml:space="preserve"
   inkscape:version="1.4 (e7c3feb100, 2024-10-09)"
   sodipodi:docname="dessieowo-com.svg"
   inkscape:export-filename="dessieowo-com.png"
   inkscape:export-xdpi="96"
   inkscape:export-ydpi="96"
   xmlns:inkscape="http://www.inkscape.org/namespaces/inkscape"
   xmlns:sodipodi="http://sodipodi.sourceforge.net/DTD/sodipodi-0.dtd"
   xmlns="http://www.w3.org/2000/svg"
   xmlns:svg="http://www.w3.org/2000/svg">
   <title>DessieOwO logo</title>
   <sodipodi:namedview
     id="namedview1"
     pagecolor="#ffffff"
     bordercolor="#000000"
     borderopacity="0.25"
     inkscape:showpageshadow="2"
     inkscape:pageopacity="0.0"
     inkscape:pagecheckerboard="0"
     inkscape:deskcolor="#d1d1d1"
     inkscape:document-units="px"
     inkscape:zoom="1.01"
     inkscape:cx="268.31683"
     inkscape:cy="319.80198"
     inkscape:window-width="1600"
     inkscape:window-height="863"
     inkscape:window-x="0"
     inkscape:window-y="0"
     inkscape:window-maximized="1"
     inkscape:current-layer="layer1" /><defs
     id="defs1"><inkscape:path-effect
       effect="spiro"
       id="path-effect13"
       is_visible="true"
       lpeversion="1" /><inkscape:path-effect
       effect="spiro"
       id="path-effect12"
       is_visible="true"
       lpeversion="1" /><inkscape:path-effect
       effect="spiro"
       id="path-effect5"
       is_visible="true"
       lpeversion="1" /></defs><g
     inkscape:label="Layer 1"
     inkscape:groupmode="layer"
     id="layer1"><rect
       style="fill:#191a1b;fill-opacity:1;stroke:none;stroke-width:4.99999;stroke-dasharray:none;stroke-opacity:1"
       id="background"
       width="132.29166"
       height="132.29166"
       x="1.7529297e-06"
       y="1.7529297e-06"></rect><path
       style="fill:#009dee"
       d="m 9.3359375,74.259766 c -2.3722267,-0.05369 -4.7655038,0.730757 -6.5625,2.486328 -1.0211407,0.997601 -2.18549299,3.229905 -0.3970322,5.103422 1.3687812,1.207298 4.3586862,0.773679 5.2232044,-0.03311 0.3320721,-0.315895 0.9784054,-0.572167 1.578125,-0.558594 0.6298206,0.01426 1.3950173,0.294123 2.0019533,0.777344 0.622905,0.495936 1.174923,1.255373 1.527343,2.132813 0.357042,0.888948 0.538501,1.940708 0.53711,3.050781 -0.0028,2.237311 -0.755986,4.726517 -1.779297,7.382812 -1.027198,2.666386 -2.3449836,5.581728 -3.0390624,8.988278 -1.0853731,5.32704 -0.3190083,11.05166 2.5527344,15.8418 2.891944,4.82384 7.800094,8.37925 13.501953,9.24805 4.407209,0.67153 8.945661,-0.32401 12.667968,-2.77735 3.722308,-2.45334 6.426189,-6.23195 7.546875,-10.54687 l -6.77539,-1.75977 c -0.671881,2.58691 -2.391428,4.99205 -4.623047,6.46289 -2.231619,1.47084 -5.121436,2.10377 -7.763672,1.70118 -3.410875,-0.51972 -6.702992,-2.84558 -8.550781,-5.92774 -1.867991,-3.11586 -2.452212,-7.1404 -1.697266,-10.8457 0.4929,-2.41917 1.600838,-4.987563 2.710938,-7.869143 1.113986,-2.891669 2.2434,-6.180573 2.248047,-9.888671 0.0023,-1.862633 -0.292063,-3.800349 -1.042969,-5.669922 -0.755528,-1.881082 -1.959377,-3.644343 -3.662109,-5 -1.718703,-1.368372 -3.861,-2.245821 -6.2031255,-2.298828 z"
       id="tail"
       transform="matrix(0.99500069,0,0,1.0616384,2.3407214,-9.3170897)"
       sodipodi:nodetypes="ssccsssssssssccssssscssss"></path><path
       style="fill:#009dee;fill-opacity:1;stroke:none;stroke-width:5.70111;stroke-dasharray:none;stroke-opacity:1"
       d="m 45.525291,40.344279 c 0,0 -1.243599,-27.799016 11.840136,-28.003592 11.339236,0.204575 11.377786,21.359478 11.377786,21.359478"
       id="left-ear"
       sodipodi:nodetypes="ccc"></path><path
       style="fill:#009dee;fill-opacity:1;stroke:none;stroke-width:5.70111;stroke-dasharray:none;stroke-opacity:1"
       d="m 124.87847,40.344279 c 0,0 1.24359,-27.799016 -11.84014,-28.003592 -11.33924,0.204575 -11.37779,21.359478 -11.37779,21.359478"
       id="right-ear"
       sodipodi:nodetypes="ccc"></path><rect
       style="display:inline;fill:#2c9000;fill-opacity:1;stroke-width:0.351008"
       id="body"
       width="90.213753"
       height="98.092682"
       x="40.095001"
       y="33.701073"
       ry="20.403275"></rect><rect
       style="display:inline;fill:#009dee;fill-opacity:1;stroke-width:0.264583"
       id="left-eye"
       width="7.4249997"
       height="28.215"
       x="75.363747"
       y="47.891251"
       ry="3.7124999"></rect><rect
       style="fill:#009dee;fill-opacity:1;stroke-width:0.264583"
       id="right-eye"
       width="7.4249997"
       height="28.215"
       x="100.98"
       y="47.891251"
       ry="3.7124999"></rect><path
       id="mouth"
       style="fill:#009dee;stroke-width:1.04108;fill-opacity:1"
       d="m 61.260708,90.886555 c -1.364157,0.03314 -2.416907,1.205326 -2.416907,1.205326 0,0 0.267604,6.577034 2.619478,13.302269 1.175937,3.36262 2.881177,6.83396 5.507674,9.57035 2.626498,2.73639 6.269896,4.65327 10.705289,4.65327 7.558292,0 12.176105,-3.94835 14.500407,-8.16618 2.32433,4.21778 6.942208,8.16618 14.500411,8.16618 4.43539,0 8.07827,-1.91688 10.70477,-4.65327 2.62649,-2.73639 4.33225,-6.20773 5.50819,-9.57035 2.35187,-6.725235 2.61896,-13.302269 2.61896,-13.302269 0,0 -1.19748,-1.333949 -2.69338,-1.196364 -1.53149,0.140859 -2.30063,0.933678 -2.30063,0.933678 0,0 -0.29032,5.89641 -2.30064,11.644955 -1.00515,2.87426 -2.43358,5.64129 -4.29689,7.58257 -1.86331,1.94127 -4.06515,3.14157 -7.24038,3.14157 -6.797621,0 -9.258319,-3.14367 -10.679973,-6.47526 -1.421654,-3.3316 -1.302763,-6.77436 -1.302763,-6.77436 l -0.03927,-0.002 c -0.0021,-0.0634 -0.0026,-0.26885 -0.0026,-0.26885 l -2.475817,0.13442 -2.476335,-0.13442 c 0,0 -4.87e-4,0.20544 -0.0026,0.26885 l -0.03927,0.002 c 0,0 0.118891,3.44276 -1.302763,6.77436 -1.421654,3.33159 -3.881835,6.47526 -10.679451,6.47526 -3.175231,0 -5.377077,-1.2003 -7.240384,-3.14157 -1.863307,-1.94128 -3.291738,-4.70831 -4.296895,-7.58257 -2.010313,-5.748544 -2.300635,-11.644955 -2.300635,-11.644955 0,0 -0.76914,-0.792819 -2.300635,-0.933678 -0.09349,-0.0085 -0.186041,-0.01117 -0.276985,-0.009 z">
       </path></g></svg>
